# xmcd CD database file
#
# Track frame offsets:
#	217
#	16052
#	26622
#	41582
#	60810
#	71705
#	84837
#	94670
#	99587
#	116242
#	135665
#	140972
#	157057
#	162092
#	178202
#	190735
#	197862
#	204952
#	231862
#	255555
#
# Disc length: 3788 seconds
#
# Revision: 0
# Processed by: cddbd v1.4PL0 Copyright (c) Steve Scherf et al.
# Submitted via: CDex 1.50beta10
#
DISCID=110eca14
DTITLE=Charlie Parker - Charlie Parker at Birdland Volume 1  [CD1]
DYEAR=1900
DGENRE=Jazz
TTITLE0=Hot House
TTITLE1=Out of Nowhere
TTITLE2=Visa - 52nd Street Theme
TTITLE3=Anthropology
TTITLE4=What's New
TTITLE5=Little Willie Leaps
TTITLE6=Yesterdays - 52nd Street Theme
TTITLE7=52nd Street Theme
TTITLE8=Dizzy Atmosphere
TTITLE9=Wahoo
TTITLE10=I Can't Get Started
TTITLE11=Wee
TTITLE12=52nd Street Theme
TTITLE13=Slow Boat to China
TTITLE14=A Night in Tunisia
TTITLE15=52nd Street Theme
TTITLE16=52nd Street Theme Inc
TTITLE17=Wahoo
TTITLE18=Round Midnight
TTITLE19=This Time the Dream's on Me
EXTD=
EXTT0=
EXTT1=
EXTT2=
EXTT3=
EXTT4=
EXTT5=
EXTT6=
EXTT7=
EXTT8=
EXTT9=
EXTT10=
EXTT11=
EXTT12=
EXTT13=
EXTT14=
EXTT15=
EXTT16=
EXTT17=
EXTT18=
EXTT19=
PLAYORDER=
